<svg width="259" height="79" viewBox="0 0 259 79" fill="none" xmlns="http://www.w3.org/2000/svg">
<g clip-path="url(#clip0_519_1836)">
<path d="M64.5665 17.5H37.3636C32.7445 17.5 29 21.2505 29 25.8769V53.1231C29 57.7495 32.7445 61.5 37.3636 61.5H64.5665C69.1856 61.5 72.9301 57.7495 72.9301 53.1231V25.8769C72.9301 21.2505 69.1856 17.5 64.5665 17.5Z" fill="#D4FF00"/>
<path d="M64.5665 17.5H37.3636C32.7445 17.5 29 21.2505 29 25.8769V53.1231C29 57.7495 32.7445 61.5 37.3636 61.5H64.5665C69.1856 61.5 72.9301 57.7495 72.9301 53.1231V25.8769C72.9301 21.2505 69.1856 17.5 64.5665 17.5Z" fill="#D4FF00"/>
<path d="M62.246 34.98H35.1689L39.6832 25.9399H66.7602L62.246 34.98Z" fill="#0F0F0F"/>
<path d="M48.7093 44.02H39.6836L44.1951 34.98H53.2208L48.7093 44.02Z" fill="#0F0F0F"/>
<path d="M53.221 53.0601H44.1953L48.7095 44.02H57.7352L53.221 53.0601Z" fill="#0F0F0F"/>
<path d="M96.9426 52.7863H91.159L95.9495 30.4972H89.709L90.7732 25.4277H109.074L108.009 30.4972H101.717L96.9426 52.7863Z" fill="#D4FF00"/>
<path d="M105.624 52.7863L109.692 33.506H115.019L110.948 52.7863H105.624ZM110.187 31.2206L111.405 25.4277H116.77L115.547 31.2206H110.187Z" fill="#D4FF00"/>
<path d="M140.662 52.7862L143.516 39.1836C143.557 39.0211 143.583 38.8551 143.592 38.6876C143.592 38.2684 143.319 38.1177 142.64 38.1177H136.933C136.134 38.1177 135.839 38.3451 135.677 39.0685L132.783 52.7862H127.459L130.321 39.1836C130.363 39.0214 130.389 38.8552 130.397 38.6876C130.397 38.2684 130.124 38.1177 129.486 38.1177H123.741C122.98 38.1177 122.677 38.3451 122.485 39.1836L119.631 52.7862H114.305L118.376 33.5059H123.511L123.057 35.6021C124.006 34.1526 125.185 33.5059 126.821 33.5059H133.251C135.19 33.5059 136.143 34.1169 136.181 35.6021C137.322 34.1169 138.389 33.5059 140.011 33.5059H146.438C148.457 33.5059 149.406 34.1909 149.406 35.8679C149.406 36.3423 149.355 36.8154 149.256 37.2792L145.973 52.7862H140.662Z" fill="#D4FF00"/>
<path d="M149.198 52.7862L150.112 48.3662H163.313C164.112 48.3662 164.3 48.1771 164.454 47.4509L164.872 45.5465C164.901 45.4479 164.914 45.3451 164.91 45.2423C164.91 44.8998 164.719 44.7463 164.15 44.7463H153.838C152.126 44.7463 151.376 44.0229 151.376 42.8418C151.379 42.5586 151.418 42.2769 151.491 42.0033L152.558 36.8599C153.012 34.5718 154.153 33.5059 156.818 33.5059H172.719L171.808 37.8108H158.675C157.876 37.8108 157.581 38.0848 157.42 38.8411L157.078 40.4414C157.046 40.5527 157.033 40.6684 157.039 40.7839C157.039 41.2032 157.269 41.3923 157.838 41.3923H168.262C170.013 41.3923 170.773 42.1568 170.773 43.3378C170.765 43.5932 170.739 43.8477 170.697 44.0996L169.54 49.4376C169.044 51.7257 167.898 52.7917 165.241 52.7917L149.198 52.7862Z" fill="#D4FF00"/>
<path d="M187.536 52.7863L190.39 39.1837C190.428 39.0336 190.454 38.8805 190.467 38.7261C190.467 38.2685 190.163 38.1178 189.514 38.1178H181.564C180.803 38.1178 180.497 38.3452 180.308 39.1837L177.455 52.7863H172.128L177.925 25.4277H183.252L181.082 35.6022C182.073 34.1526 183.214 33.506 184.85 33.506H193.295C195.35 33.506 196.261 34.1526 196.261 35.8297C196.262 36.3168 196.212 36.8028 196.111 37.2793L192.828 52.7863H187.536Z" fill="#D4FF00"/>
<path d="M199.408 52.7862C197.241 52.7862 196.365 52.0627 196.365 50.5008C196.382 50.0009 196.445 49.5037 196.554 49.0156L199.016 37.2792C199.55 34.6869 200.691 33.5059 203.468 33.5059H216.501C218.441 33.5059 219.202 34.2293 219.202 35.7172C219.201 36.1907 219.151 36.6628 219.051 37.1257L217.453 44.708H204.63L205.279 41.5074H213.038L213.61 38.9178C213.64 38.7543 213.653 38.5881 213.648 38.4218C213.648 38.041 213.459 37.8738 212.849 37.8738H205.202C204.327 37.8738 204.138 38.104 203.946 38.9425L202.16 47.2481C202.12 47.436 202.095 47.6265 202.083 47.8181C202.083 48.2757 202.31 48.3908 202.959 48.3908H215.93L215.018 52.7752L199.408 52.7862Z" fill="#D4FF00"/>
<path d="M218.89 52.7863L224.673 25.4277H229.997L224.216 52.7863H218.89Z" fill="#D4FF00"/>
</g>
<defs>
<clipPath id="clip0_519_1836">
<rect width="201" height="44" fill="white" transform="translate(29 17.5)"/>
</clipPath>
</defs>
</svg>
