<svg width="25" height="24" viewBox="0 0 25 24" fill="none" xmlns="http://www.w3.org/2000/svg">
<path d="M10.1145 1.38193C10.7132 -0.46069 13.32 -0.460688 13.9187 1.38193L15.3843 5.89258C15.6521 6.71662 16.42 7.27454 17.2864 7.27454L22.0292 7.27454C23.9666 7.27454 24.7722 9.75377 23.2048 10.8926L19.3678 13.6803C18.6668 14.1896 18.3735 15.0923 18.6412 15.9164L20.1068 20.427C20.7055 22.2696 18.5966 23.8019 17.0292 22.6631L13.1922 19.8754C12.4912 19.3661 11.542 19.3661 10.841 19.8754L7.00405 22.6631C5.43662 23.8019 3.32766 22.2696 3.92636 20.427L5.39196 15.9164C5.65971 15.0923 5.36639 14.1896 4.66542 13.6803L0.828435 10.8926C-0.738992 9.75377 0.0665593 7.27454 2.00401 7.27454L6.74678 7.27454C7.61323 7.27454 8.38114 6.71662 8.64889 5.89258L10.1145 1.38193Z" fill="#D4FF00"/>
</svg>
